<?xml version="1.0" encoding="UTF-8" standalone="no"?>
<!DOCTYPE svg PUBLIC "-//W3C//DTD SVG 1.1//EN" "http://www.w3.org/Graphics/SVG/1.1/DTD/svg11.dtd">
<svg xmlns="http://www.w3.org/2000/svg" xmlns:xlink="http://www.w3.org/1999/xlink" version="1.1" width="949.333pt" height="267.333pt" viewBox="0 0 949.333 267.333">
<g enable-background="new">
<g id="Layer-1" data-name="Layer 1">
<clipPath id="cp0">
<path transform="matrix(1,0,0,-1,0,267.333)" d="M 0 0 L 949.333 0 L 949.333 267.333 L 0 267.333 Z "/>
</clipPath>
<g clip-path="url(#cp0)">
<path transform="matrix(1,0,0,-1,293.8503,139.8743)" d="M 0 0 L 31.174 0 L 55.213 -68.656 L 79.251 0 L 110.614 0 L 70.75 -95.433 C 64.245 -108.046 46.205 -108.034 39.717 -95.411 Z " fill="#ffffff"/>
<path transform="matrix(1,0,0,-1,439.9484,184.09992)" d="M 0 0 L 51.646 0 C 50.519 9.389 41.316 19.717 27.231 19.717 C 11.081 19.717 1.128 10.515 0 0 M -28.733 -9.391 C -28.733 33.052 8.076 44.32 27.419 44.32 C 53.898 44.32 80.378 26.291 81.318 -6.949 C 81.318 -14.836 80.754 -19.908 80.754 -19.908 L -.751 -19.908 C 2.629 -36.811 21.786 -38.688 27.419 -38.688 C 43.007 -38.688 50.707 -30.237 53.898 -26.669 L 75.684 -39.25 C 71.552 -44.884 57.655 -63.288 27.419 -63.288 C 7.325 -63.288 -28.733 -51.833 -28.733 -9.391 " fill="#ffffff"/>
<path transform="matrix(1,0,0,-1,594.2438,222.223)" d="M 0 0 C 17.278 0 28.359 12.77 28.359 29.107 C 28.359 46.01 17.842 58.404 0 58.404 C -17.464 58.404 -28.356 46.196 -28.356 29.107 C -28.356 11.078 -17.464 0 0 0 M -55.026 -19.396 L -55.026 110.083 C -55.026 111.817 -53.619 113.224 -51.884 113.224 L -30.373 113.224 C -28.637 113.224 -27.23 111.817 -27.23 110.083 L -27.23 77.573 C -27.23 74.998 -24.27 73.439 -22.225 75.005 C -16.186 79.627 -7.137 83.008 4.132 83.008 C 36.808 83.008 55.966 58.78 55.966 29.107 C 55.966 -.564 36.808 -24.789 4.132 -24.789 C -6.665 -24.789 -16.237 -21.117 -22.254 -16.855 C -24.349 -15.371 -27.23 -16.828 -27.23 -19.396 C -27.23 -21.131 -28.637 -22.536 -30.373 -22.536 L -51.884 -22.536 C -53.619 -22.536 -55.026 -21.131 -55.026 -19.396 " fill="#ffffff"/>
<path transform="matrix(1,0,0,-1,692.6686,193.30211)" d="M 0 0 C 0 -17.091 12.206 -29.486 28.357 -29.486 C 44.32 -29.486 56.714 -16.716 56.714 0 C 56.714 16.525 44.32 29.108 28.357 29.108 C 12.583 29.108 0 16.338 0 0 M -27.605 0 C -27.605 29.484 -2.441 53.711 28.357 53.711 C 59.156 53.711 84.698 29.484 84.698 0 C 84.698 -29.861 59.156 -53.899 28.357 -53.899 C -2.441 -53.899 -27.605 -29.861 -27.605 0 " fill="#ffffff"/>
<path transform="matrix(1,0,0,-1,888.5622,183.7239)" d="M 0 0 L 0 -58.073 C 0 -59.709 -1.327 -61.036 -2.963 -61.036 L -25.772 -61.036 C -27.408 -61.036 -28.735 -59.709 -28.735 -58.073 L -28.735 0 C -28.735 15.963 -37.748 20.846 -48.642 20.846 C -56.341 20.846 -68.922 16.148 -68.36 -6.386 L -68.36 -58.073 C -68.36 -59.709 -69.688 -61.036 -71.323 -61.036 L -93.379 -61.036 C -95.017 -61.036 -96.342 -59.709 -96.342 -58.073 L -96.342 39.291 C -96.342 40.927 -95.017 42.254 -93.379 42.254 L -71.323 42.254 C -69.688 42.254 -68.36 40.927 -68.36 39.291 C -68.36 36.887 -65.683 35.527 -63.694 36.879 C -56.91 41.49 -48.112 44.133 -40.754 44.133 C -10.894 44.133 0 26.854 0 0 " fill="#ffffff"/>
<path transform="matrix(1,0,0,-1,907.3786,180.9075)" d="M 0 0 L 20.243 0 C 22.432 0 24.207 -1.774 24.207 -3.964 L 24.207 -59.889 C 24.207 -62.078 22.432 -63.853 20.243 -63.853 L 0 -63.853 C -2.189 -63.853 -3.964 -62.078 -3.964 -59.889 L -3.964 -3.964 C -3.964 -1.774 -2.189 0 0 0 " fill="#ffffff"/>
<path transform="matrix(1,0,0,-1,907.3786,139.59111)" d="M 0 0 L 20.243 0 C 22.432 0 24.207 -1.775 24.207 -3.964 L 24.207 -20.64 C 24.207 -22.828 22.432 -24.604 20.243 -24.604 L 0 -24.604 C -2.189 -24.604 -3.964 -22.828 -3.964 -20.64 L -3.964 -3.964 C -3.964 -1.775 -2.189 0 0 0 " fill="#ffffff"/>
<path transform="matrix(1,0,0,-1,156.7218,237.5355)" d="M 0 0 C -13.137 -13.138 -34.512 -13.137 -47.65 .001 L -129.122 81.474 C -142.258 94.608 -142.259 115.984 -129.121 129.121 C -115.984 142.259 -94.609 142.258 -81.474 129.122 L -.001 47.649 C 13.136 34.512 13.137 13.137 0 0 " fill="#95d5ea"/>
<path transform="matrix(1,0,0,-1,108.8971,237.5355)" d="M 0 0 C 13.137 -13.138 34.512 -13.137 47.65 .001 L 129.122 81.474 C 142.258 94.608 142.259 115.984 129.121 129.121 C 115.984 142.259 94.609 142.258 81.474 129.122 L .001 47.649 C -13.136 34.512 -13.137 13.137 0 0 " fill="#60c4e9"/>
<path transform="matrix(1,0,0,-1,156.7209,74.65021)" d="M 0 0 L -23.911 -23.911 L -47.823 0 C -60.373 12.55 -60.904 32.599 -49.477 45.821 L -47.649 47.649 C -41.102 54.195 -32.51 57.476 -23.911 57.498 C -15.313 57.476 -6.721 54.195 -.174 47.649 L 1.652 45.823 C 13.081 32.601 12.55 12.55 0 0 " fill="#60c4e9"/>
</g>
</g>
</g>
</svg>
