<svg xmlns="http://www.w3.org/2000/svg" width="931.525" height="234.4" viewBox="0 0 931.525 234.4">
  <g id="VeboniERP_Beyaz" data-name="VeboniERP Beyaz" transform="translate(-83.075 -389.4)">
    <g id="Group_15" data-name="Group 15">
      <g id="Group_25" data-name="Group 25">
        <path id="Path_97" data-name="Path 97" d="M359.2,516.2h31.2l24,68.7,24-68.7h31.4l-39.9,95.4a17.437,17.437,0,0,1-31,0Z" fill="#ededed"/>
      </g>
      <g id="Group_24" data-name="Group 24">
        <path id="Path_98" data-name="Path 98" d="M476.5,569.8c0-42.4,36.8-53.7,56.2-53.7,26.5,0,53,18,53.9,51.3a123.043,123.043,0,0,1-.6,13H504.5c3.4,16.9,22.5,18.8,28.2,18.8,15.6,0,23.3-8.5,26.5-12L581,599.8c-4.1,5.6-18,24-48.3,24-20.1-.1-56.2-11.5-56.2-54m28.8-9.4h51.6c-1.1-9.4-10.3-19.7-24.4-19.7-16.1,0-26.1,9.2-27.2,19.7" fill="#ededed"/>
      </g>
      <g id="Group_23" data-name="Group 23">
        <path id="Path_99" data-name="Path 99" d="M604.6,618V488.5a3.116,3.116,0,0,1,3.1-3.1h21.5a3.116,3.116,0,0,1,3.1,3.1V521a3.176,3.176,0,0,0,5,2.6c6-4.6,15.1-8,26.4-8,32.7,0,51.8,24.2,51.8,53.9s-19.2,53.9-51.8,53.9a47.506,47.506,0,0,1-26.4-7.9,3.153,3.153,0,0,0-5,2.5,3.116,3.116,0,0,1-3.1,3.1H607.7a3.116,3.116,0,0,1-3.1-3.1m55-19.4c17.3,0,28.4-12.8,28.4-29.1,0-16.9-10.5-29.3-28.4-29.3-17.5,0-28.4,12.2-28.4,29.3,0,18,10.9,29.1,28.4,29.1" fill="#ededed"/>
      </g>
      <g id="Group_22" data-name="Group 22">
        <path id="Path_100" data-name="Path 100" d="M730.4,569.6c0-29.5,25.2-53.7,56-53.7s56.3,24.2,56.3,53.7c0,29.9-25.5,53.9-56.3,53.9s-56-24-56-53.9m27.6,0c0,17.1,12.2,29.5,28.4,29.5,16,0,28.4-12.8,28.4-29.5,0-16.5-12.4-29.1-28.4-29.1-15.8,0-28.4,12.8-28.4,29.1" fill="#ededed"/>
      </g>
      <g id="Group_21" data-name="Group 21">
        <path id="Path_101" data-name="Path 101" d="M953.9,560.1v58.1a3.009,3.009,0,0,1-3,3H928.1a3.009,3.009,0,0,1-3-3V560.1c0-16-9-20.8-19.9-20.8-7.7,0-20.3,4.7-19.7,27.2v51.7a3.009,3.009,0,0,1-3,3H860.4a3.009,3.009,0,0,1-3-3V520.8a3.009,3.009,0,0,1,3-3h22.1a3.009,3.009,0,0,1,3,3,2.967,2.967,0,0,0,4.7,2.4,43.283,43.283,0,0,1,22.9-7.3c29.9,0,40.8,17.3,40.8,44.2" fill="#ededed"/>
      </g>
      <g id="Group_20" data-name="Group 20">
        <path id="Path_102" data-name="Path 102" d="M972.7,557.2H993a4.012,4.012,0,0,1,4,4v55.9a4.012,4.012,0,0,1-4,4H972.8a4.012,4.012,0,0,1-4-4V561.2a3.866,3.866,0,0,1,3.9-4" fill="#ededed"/>
      </g>
      <g id="Group_19" data-name="Group 19">
        <path id="Path_103" data-name="Path 103" d="M972.7,515.9H993a4.012,4.012,0,0,1,4,4v16.7a4.012,4.012,0,0,1-4,4H972.8a4.012,4.012,0,0,1-4-4V519.9a3.866,3.866,0,0,1,3.9-4" fill="#ededed"/>
      </g>
      <g id="Group_18" data-name="Group 18">
        <path id="Path_104" data-name="Path 104" d="M222.1,613.9a33.86,33.86,0,0,1-47.7,0L92.9,532.4a33.658,33.658,0,0,1,47.6-47.6L222,566.3a33.648,33.648,0,0,1,.1,47.6" fill="#dadada"/>
      </g>
      <g id="Group_17" data-name="Group 17">
        <path id="Path_105" data-name="Path 105" d="M174.2,613.9a33.739,33.739,0,0,0,47.6,0l81.5-81.5a33.658,33.658,0,0,0-47.6-47.6l-81.5,81.5a33.739,33.739,0,0,0,0,47.6" fill="#ededed"/>
      </g>
      <g id="Group_16" data-name="Group 16">
        <path id="Path_106" data-name="Path 106" d="M222.1,451l-23.9,23.9-24-23.9a33.767,33.767,0,0,1-1.7-45.8l1.8-1.8a33.558,33.558,0,0,1,47.4,0l1.8,1.8a33.552,33.552,0,0,1-1.4,45.8" fill="#ededed"/>
      </g>
    </g>
    <path id="Path_107" data-name="Path 107" d="M744,436.8c0-37.4,33.9-47.4,51.7-47.4,24.4,0,48.8,15.9,49.6,45.2a111.7,111.7,0,0,1-.5,11.4h-75c3.1,14.9,20.7,16.6,25.9,16.6,14.3,0,21.4-7.5,24.4-10.6l20.1,11.1c-3.8,5-16.6,21.2-44.4,21.2-18.6,0-51.8-10.1-51.8-47.5m26.5-8.3H818c-1-8.3-9.5-17.4-22.5-17.4-14.8,0-24,8.1-25,17.4" fill="#dadada"/>
    <path id="Path_108" data-name="Path 108" d="M917.7,396.8V503.6a2.669,2.669,0,0,0,2.7,2.6h18.8a2.669,2.669,0,0,0,2.7-2.6V476.8a2.781,2.781,0,0,1,4.4-2.1c5.3,3.8,13.2,6.6,23,6.6,28.5,0,45.3-20,45.3-44.5s-16.7-44.5-45.3-44.5c-9.4,0-17.8,3-23,6.5a2.736,2.736,0,0,1-4.3-2.1,2.669,2.669,0,0,0-2.7-2.6H920.5a2.776,2.776,0,0,0-2.8,2.7m48,16c15.1,0,24.8,10.5,24.8,24,0,13.9-9.2,24.2-24.8,24.2-15.3,0-24.8-10.1-24.8-24.2.1-14.9,9.6-24,24.8-24" fill="#dadada"/>
    <path id="Path_109" data-name="Path 109" d="M908.8,393.9c-1.2-.1-2.3-.1-3.6-.1a39.6,39.6,0,0,0-19.9,5.9,2.967,2.967,0,0,1-1.1.4v.1c-.6,0-1,.4-1.5.6v-.1a6.033,6.033,0,0,1-1.9.6s-.1-3.3-.1-5.2a2.5,2.5,0,0,0-1.8-.8H859.8a2.547,2.547,0,0,0-2.6,2.4v79.8a2.482,2.482,0,0,0,2.6,2.4h19.1a2.547,2.547,0,0,0,2.6-2.4V435.2c-.4-15.2,6.9-20.5,13.2-21.9.1,0,.1-.1.2-.1a14.52,14.52,0,0,1,6-1.6,30.413,30.413,0,0,1,8-.2C908.7,405.2,908.7,398.8,908.8,393.9Z" fill="#dadada"/>
  </g>
</svg>
