<svg version="1.1" id="Layer_1" xmlns="http://www.w3.org/2000/svg" xmlns:xlink="http://www.w3.org/1999/xlink" x="0px" y="0px"
	 width="100%" viewBox="0 0 1080 1080" enable-background="new 0 0 1080 1080" xml:space="preserve">
<path fill="#FFFFFF" opacity="1.000000" stroke="none" 
	d="
M604.000000,1081.000000 
	C402.689850,1081.000000 201.879684,1081.000000 1.034763,1081.000000 
	C1.034763,721.064697 1.034763,361.129425 1.034763,1.097076 
	C360.893738,1.097076 720.787476,1.097076 1080.840576,1.097076 
	C1080.840576,360.999939 1080.840576,720.999939 1080.840576,1081.000000 
	C922.128967,1081.000000 763.314514,1081.000000 604.000000,1081.000000 
M169.294983,608.725037 
	C171.163300,610.624939 173.018600,612.537903 174.902039,614.422729 
	C186.761185,626.290588 202.433548,628.636230 216.724106,619.918823 
	C221.259842,617.151917 224.797821,612.692993 228.641663,608.857422 
	C254.000015,583.554138 279.240540,558.132202 304.690186,532.921326 
	C313.350464,524.342224 315.666229,513.885681 313.536896,502.673187 
	C311.127289,489.985016 303.182312,481.140320 290.630463,477.445587 
	C277.891632,473.695740 266.318451,476.132843 256.675995,485.790619 
	C239.135040,503.359375 221.586929,520.921082 203.984085,538.427673 
	C202.501343,539.902283 200.583908,540.939819 198.321243,541.799133 
	C179.822647,523.338806 161.354599,504.847717 142.809845,486.433899 
	C135.810410,479.483856 127.598457,475.602478 117.383362,475.870789 
	C103.487770,476.235748 91.543900,483.835541 86.432755,496.330444 
	C81.070045,509.440338 83.724159,523.237366 93.607597,533.136475 
	C116.542267,556.107483 139.501282,579.054199 162.466843,601.994324 
	C164.580841,604.105896 166.813049,606.099182 169.294983,608.725037 
M633.975586,497.567078 
	C633.975586,496.067749 633.981567,494.568390 633.974548,493.069092 
	C633.944519,486.654053 633.305115,486.028137 626.698669,486.014679 
	C621.367920,486.003815 616.034912,486.107330 610.707092,485.982697 
	C606.690002,485.888763 604.990051,487.636902 604.994873,491.661255 
	C605.045288,533.307922 605.037964,574.954651 605.006897,616.601379 
	C605.004089,620.366760 606.666992,622.087769 610.447998,622.032959 
	C616.277344,621.948425 622.110168,621.934692 627.938721,622.043579 
	C630.892456,622.098694 632.987915,621.422119 634.208862,618.323853 
	C634.561279,617.429443 637.370178,616.466248 638.219971,616.962097 
	C648.892822,623.189575 660.161377,625.731323 672.514282,624.057922 
	C686.796082,622.123291 698.776184,615.827942 706.737915,604.032532 
	C717.178162,588.565063 719.059143,571.547607 714.379333,553.163818 
	C705.960693,520.092712 666.335144,506.644928 639.374268,523.366882 
	C635.465210,525.791321 634.067566,525.123230 634.004333,520.536255 
	C633.903259,513.207825 633.976135,505.876984 633.975586,497.567078 
M479.759644,588.553772 
	C483.012970,600.161072 490.186737,609.077576 500.128754,615.298035 
	C514.612915,624.360413 530.597290,627.192322 547.439697,623.653992 
	C561.798645,620.637329 573.218750,613.019470 582.084045,600.688416 
	C576.456482,597.322144 570.948120,594.303955 565.750183,590.822327 
	C562.174866,588.427551 559.384155,588.587891 556.201172,591.434387 
	C545.048218,601.408752 532.410767,601.953613 519.008362,596.883118 
	C511.951324,594.213135 506.953552,588.181335 506.895630,581.975586 
	C508.707031,581.975586 510.518066,581.975586 512.329102,581.975586 
	C535.641541,581.975586 558.954468,581.894775 582.265747,582.060974 
	C585.844971,582.086426 587.664734,580.850342 587.861084,577.488953 
	C588.824890,560.990540 585.904907,545.522766 573.755554,533.391663 
	C558.665588,518.324585 540.282166,514.010559 519.694153,518.646484 
	C502.149811,522.596924 488.508514,531.982910 481.329590,548.818115 
	C475.974792,561.375549 476.056702,574.608582 479.759644,588.553772 
M824.967041,530.475769 
	C808.896057,517.146057 790.660950,514.072754 770.731750,519.034424 
	C749.281799,524.374878 730.903809,547.600281 731.065002,569.700745 
	C731.205688,588.974609 739.288757,604.363220 755.355713,615.089417 
	C770.768616,625.379028 787.563293,627.555298 805.254028,621.960876 
	C827.716797,614.857300 843.325134,595.793579 843.910706,571.834656 
	C844.311646,555.430176 837.600464,541.900146 824.967041,530.475769 
M954.989929,554.762329 
	C954.653809,552.305725 954.406189,549.833130 953.967102,547.395081 
	C951.453125,533.437988 944.605164,522.995789 930.261353,518.965698 
	C917.277405,515.317627 904.653381,515.983032 892.714172,522.835449 
	C890.157166,524.303101 887.985291,525.378113 886.655762,521.218140 
	C886.306580,520.125732 883.850830,519.142090 882.327393,519.087402 
	C875.839478,518.854492 869.334351,519.126648 862.843628,518.936401 
	C859.074402,518.825928 857.963989,520.416565 857.974304,524.001404 
	C858.063293,554.816833 858.047424,585.632629 857.999878,616.448181 
	C857.993896,620.326172 859.260498,622.284302 863.545532,622.080811 
	C869.362305,621.804504 875.215637,621.769409 881.027893,622.090088 
	C885.602173,622.342407 887.138428,620.793701 887.080994,616.128357 
	C886.855469,597.808350 886.822449,579.481567 887.071716,561.162109 
	C887.182739,552.999268 890.803345,546.210693 898.260437,542.463440 
	C905.438599,538.856445 912.782654,539.746094 919.383362,544.267456 
	C925.112732,548.192017 925.817078,554.620544 925.905762,560.736572 
	C926.169006,578.889038 925.996887,597.047729 926.001526,615.203979 
	C926.003296,622.003113 926.011475,622.005798 933.021484,622.011536 
	C938.351746,622.015930 943.696716,621.768311 949.007874,622.086975 
	C953.538391,622.358826 955.147827,620.889832 955.095337,616.174805 
	C954.870667,596.022156 954.998108,575.865662 954.989929,554.762329 
M1003.534058,420.203979 
	C999.577148,407.948425 992.086426,398.695312 979.712891,394.539764 
	C965.175415,389.657501 951.052612,390.419922 938.273621,400.379028 
	C938.021301,397.831055 937.800842,395.604401 937.548218,393.053406 
	C930.787415,393.053406 924.482727,393.132599 918.181702,393.017822 
	C915.311157,392.965515 914.999817,394.546265 915.001953,396.824921 
	C915.033020,430.282043 915.044983,463.739197 914.982117,497.196228 
	C914.976990,499.937988 915.806274,501.299530 918.679260,500.986816 
	C919.337219,500.915192 920.010742,501.002899 920.675354,500.974823 
	C926.267273,500.738739 931.858765,500.492706 937.450439,500.249695 
	C937.633606,494.800446 937.882935,489.352417 937.980652,483.901642 
	C938.071289,478.850403 938.000000,473.796265 938.000000,467.864319 
	C948.363403,475.466125 958.837463,478.005432 970.606689,476.095093 
	C981.469055,474.331940 990.392639,469.761780 997.043579,460.907928 
	C1006.175049,448.751984 1006.307007,435.090790 1003.534058,420.203979 
M362.502930,523.071411 
	C368.420166,537.504883 374.275299,551.964172 380.271515,566.364685 
	C386.652222,581.688660 393.108765,596.981689 399.646362,612.239319 
	C403.007660,620.084045 409.563171,622.682495 417.520081,621.933105 
	C424.509827,621.274841 429.235260,617.485962 431.996094,610.779541 
	C441.157471,588.525330 450.602692,566.388184 459.890045,544.185608 
	C463.577545,535.370117 467.136841,526.501038 471.022888,517.000122 
	C461.377167,517.000122 452.417480,517.122131 443.464264,516.935059 
	C440.262909,516.868225 438.824341,517.953979 437.785309,521.037048 
	C432.377167,537.084534 426.723358,553.049500 421.103790,569.025146 
	C419.398590,573.872925 417.530151,578.663208 415.321930,584.593079 
	C414.490417,582.544250 414.160889,581.821594 413.899475,581.075073 
	C406.875916,561.019226 399.892792,540.949036 392.772949,520.927368 
	C392.247192,519.448914 390.778046,517.227783 389.692108,517.195129 
	C379.974518,516.902954 370.244446,517.024780 359.870575,517.024780 
	C360.885529,519.398560 361.523621,520.890869 362.502930,523.071411 
M796.351624,456.113373 
	C784.736145,459.676117 767.646729,453.511536 767.443787,442.979126 
	C769.195679,442.979126 770.961182,442.979095 772.726624,442.979126 
	C790.883972,442.979340 809.042542,442.871246 827.197632,443.072418 
	C830.768372,443.112000 832.655457,441.983429 832.829102,438.568939 
	C833.441162,426.536591 831.123596,415.136932 822.550903,406.275543 
	C809.967773,393.268524 794.348206,389.498505 776.871277,393.630432 
	C766.264404,396.138184 757.054321,401.087341 750.401489,410.108154 
	C746.125122,415.906647 744.239380,422.528992 743.361206,429.520416 
	C741.731812,442.494049 746.701721,459.594635 759.052185,467.672272 
	C771.937866,476.099884 785.917725,478.978210 800.852112,475.730957 
	C811.972534,473.313019 821.370605,467.722351 827.962463,457.666138 
	C822.793396,454.685455 818.008850,451.674744 812.965271,449.189819 
	C811.655640,448.544586 809.328796,449.125000 807.829956,449.869141 
	C804.164978,451.688782 800.710754,453.933014 796.351624,456.113373 
M165.747452,422.405487 
	C163.761337,431.731018 165.530807,440.643860 171.514832,447.695618 
	C179.767746,457.421112 189.135345,466.201324 198.055771,475.356903 
	C198.341232,475.649872 198.959091,475.618988 199.778702,475.831573 
	C206.964539,468.607391 214.141006,461.214508 221.516693,454.026001 
	C229.425598,446.317841 233.526718,437.233765 233.036316,426.040863 
	C232.242889,407.932007 215.304916,392.783752 197.143036,394.178497 
	C181.349182,395.391388 168.688873,406.101471 165.747452,422.405487 
M851.053345,394.866638 
	C851.028687,420.028137 851.049866,445.189911 850.923584,470.350891 
	C850.907104,473.635956 851.593567,475.262482 855.304688,475.046356 
	C860.120850,474.765869 864.974243,474.802734 869.795227,475.038025 
	C873.161987,475.202301 874.055725,473.878540 874.013306,470.687714 
	C873.864990,459.525055 873.930420,448.359009 873.974060,437.194489 
	C874.018799,425.760864 880.094604,417.887238 891.151978,415.141418 
	C894.620667,414.280060 898.216187,413.929169 901.562683,413.376129 
	C901.562683,406.110809 901.562683,399.218750 901.562683,392.026093 
	C890.901855,391.994965 881.990356,395.150635 873.936340,403.221222 
	C873.936340,400.231293 874.226929,398.251190 873.833130,396.418091 
	C873.575256,395.217743 872.323914,393.292419 871.522522,393.294861 
	C864.787170,393.315704 858.053040,393.707275 851.053345,394.866638 
M993.059204,622.008728 
	C996.659729,622.005005 998.023438,620.048645 998.015991,616.622070 
	C997.977295,598.816833 997.984741,581.011414 998.008362,563.206055 
	C998.013000,559.702698 996.390198,557.978821 992.862793,557.995361 
	C987.038818,558.022705 981.213806,558.054688 975.390564,557.983276 
	C971.622253,557.937012 969.949341,559.681030 969.958496,563.432861 
	C970.002319,581.404480 970.026428,599.376526 969.936829,617.347839 
	C969.919739,620.784241 971.239441,622.139282 974.665527,622.051453 
	C980.485840,621.902161 986.312866,622.011292 993.059204,622.008728 
M990.275879,516.987671 
	C985.129211,516.987671 979.978088,517.115662 974.837524,516.938843 
	C971.854675,516.836243 969.807312,517.814026 969.637390,520.857605 
	C969.334106,526.291626 969.010071,531.769104 969.393066,537.178955 
	C969.600220,540.106201 971.761536,542.114563 975.285645,542.024597 
	C980.926758,541.880737 986.576843,541.881042 992.218140,542.020508 
	C996.538635,542.127319 998.196899,540.116089 998.033569,535.951904 
	C997.877502,531.973511 998.011414,527.984131 997.997314,523.999634 
	C997.975464,517.839233 997.340515,517.190796 990.275879,516.987671 
z"/>
<path fill="#E5E5E5" opacity="1.000000" stroke="none" 
	d="
M198.868454,542.180420 
	C200.583908,540.939819 202.501343,539.902283 203.984085,538.427673 
	C221.586929,520.921082 239.135040,503.359375 256.675995,485.790619 
	C266.318451,476.132843 277.891632,473.695740 290.630463,477.445587 
	C303.182312,481.140320 311.127289,489.985016 313.536896,502.673187 
	C315.666229,513.885681 313.350464,524.342224 304.690186,532.921326 
	C279.240540,558.132202 254.000015,583.554138 228.641663,608.857422 
	C224.797821,612.692993 221.259842,617.151917 216.724106,619.918823 
	C202.433548,628.636230 186.761185,626.290588 174.902039,614.422729 
	C173.018600,612.537903 171.163300,610.624939 169.143967,608.030640 
	C168.871552,606.688049 168.863525,605.991821 168.612183,605.398621 
	C162.179977,590.218384 165.218643,577.037292 176.866943,565.590210 
	C183.267609,559.300110 189.606400,552.945496 195.882202,546.531128 
	C197.093979,545.292542 197.883911,543.641296 198.868454,542.180420 
z"/>
<path fill="#E5E5E5" opacity="1.000000" stroke="none" 
	d="
M633.975586,498.057129 
	C633.976135,505.876984 633.903259,513.207825 634.004333,520.536255 
	C634.067566,525.123230 635.465210,525.791321 639.374268,523.366882 
	C666.335144,506.644928 705.960693,520.092712 714.379333,553.163818 
	C719.059143,571.547607 717.178162,588.565063 706.737915,604.032532 
	C698.776184,615.827942 686.796082,622.123291 672.514282,624.057922 
	C660.161377,625.731323 648.892822,623.189575 638.219971,616.962097 
	C637.370178,616.466248 634.561279,617.429443 634.208862,618.323853 
	C632.987915,621.422119 630.892456,622.098694 627.938721,622.043579 
	C622.110168,621.934692 616.277344,621.948425 610.447998,622.032959 
	C606.666992,622.087769 605.004089,620.366760 605.006897,616.601379 
	C605.037964,574.954651 605.045288,533.307922 604.994873,491.661255 
	C604.990051,487.636902 606.690002,485.888763 610.707092,485.982697 
	C616.034912,486.107330 621.367920,486.003815 626.698669,486.014679 
	C633.305115,486.028137 633.944519,486.654053 633.974548,493.069092 
	C633.981567,494.568390 633.975586,496.067749 633.975586,498.057129 
M639.997192,549.505920 
	C631.716858,557.505737 629.809570,573.487976 635.330872,584.240173 
	C637.562927,588.586975 641.202820,593.016785 645.352722,595.429443 
	C660.877075,604.454651 685.289551,598.031128 688.450073,575.574463 
	C690.206116,563.097168 685.376465,549.899414 674.242432,544.291321 
	C663.924011,539.094055 650.804199,539.643738 639.997192,549.505920 
z"/>
<path fill="#E5E5E5" opacity="1.000000" stroke="none" 
	d="
M479.603577,588.176331 
	C476.056702,574.608582 475.974792,561.375549 481.329590,548.818115 
	C488.508514,531.982910 502.149811,522.596924 519.694153,518.646484 
	C540.282166,514.010559 558.665588,518.324585 573.755554,533.391663 
	C585.904907,545.522766 588.824890,560.990540 587.861084,577.488953 
	C587.664734,580.850342 585.844971,582.086426 582.265747,582.060974 
	C558.954468,581.894775 535.641541,581.975586 512.329102,581.975586 
	C510.518066,581.975586 508.707031,581.975586 506.895630,581.975586 
	C506.953552,588.181335 511.951324,594.213135 519.008362,596.883118 
	C532.410767,601.953613 545.048218,601.408752 556.201172,591.434387 
	C559.384155,588.587891 562.174866,588.427551 565.750183,590.822327 
	C570.948120,594.303955 576.456482,597.322144 582.084045,600.688416 
	C573.218750,613.019470 561.798645,620.637329 547.439697,623.653992 
	C530.597290,627.192322 514.612915,624.360413 500.128754,615.298035 
	C490.186737,609.077576 483.012970,600.161072 479.603577,588.176331 
M508.053436,555.846313 
	C507.697571,557.338379 507.341736,558.830505 506.825989,560.993042 
	C523.236084,560.993042 538.825500,561.041321 554.412109,560.853882 
	C555.210022,560.844238 556.645203,558.790039 556.610535,557.726013 
	C556.560852,556.203491 555.562500,554.638000 554.738220,553.225769 
	C544.747131,536.109497 514.946411,539.655457 508.053436,555.846313 
z"/>
<path fill="#CCCCCC" opacity="1.000000" stroke="none" 
	d="
M198.594849,541.989746 
	C197.883911,543.641296 197.093979,545.292542 195.882202,546.531128 
	C189.606400,552.945496 183.267609,559.300110 176.866943,565.590210 
	C165.218643,577.037292 162.179977,590.218384 168.612183,605.398621 
	C168.863525,605.991821 168.871552,606.688049 168.991669,607.741821 
	C166.813049,606.099182 164.580841,604.105896 162.466843,601.994324 
	C139.501282,579.054199 116.542267,556.107483 93.607597,533.136475 
	C83.724159,523.237366 81.070045,509.440338 86.432755,496.330444 
	C91.543900,483.835541 103.487770,476.235748 117.383362,475.870789 
	C127.598457,475.602478 135.810410,479.483856 142.809845,486.433899 
	C161.354599,504.847717 179.822647,523.338806 198.594849,541.989746 
z"/>
<path fill="#E5E5E5" opacity="1.000000" stroke="none" 
	d="
M825.221680,530.726929 
	C837.600464,541.900146 844.311646,555.430176 843.910706,571.834656 
	C843.325134,595.793579 827.716797,614.857300 805.254028,621.960876 
	C787.563293,627.555298 770.768616,625.379028 755.355713,615.089417 
	C739.288757,604.363220 731.205688,588.974609 731.065002,569.700745 
	C730.903809,547.600281 749.281799,524.374878 770.731750,519.034424 
	C790.660950,514.072754 808.896057,517.146057 825.221680,530.726929 
M805.487488,593.036377 
	C813.071533,586.599060 815.559753,578.349548 815.132751,568.568054 
	C814.677551,558.141968 810.268738,550.162781 801.330200,545.369446 
	C792.234985,540.492126 782.482666,539.929016 773.269592,545.483154 
	C758.422852,554.433533 754.588745,573.376282 764.419250,588.032288 
	C773.482971,601.544983 792.840759,604.177124 805.487488,593.036377 
z"/>
<path fill="#E5E5E5" opacity="1.000000" stroke="none" 
	d="
M954.993530,555.236450 
	C954.998108,575.865662 954.870667,596.022156 955.095337,616.174805 
	C955.147827,620.889832 953.538391,622.358826 949.007874,622.086975 
	C943.696716,621.768311 938.351746,622.015930 933.021484,622.011536 
	C926.011475,622.005798 926.003296,622.003113 926.001526,615.203979 
	C925.996887,597.047729 926.169006,578.889038 925.905762,560.736572 
	C925.817078,554.620544 925.112732,548.192017 919.383362,544.267456 
	C912.782654,539.746094 905.438599,538.856445 898.260437,542.463440 
	C890.803345,546.210693 887.182739,552.999268 887.071716,561.162109 
	C886.822449,579.481567 886.855469,597.808350 887.080994,616.128357 
	C887.138428,620.793701 885.602173,622.342407 881.027893,622.090088 
	C875.215637,621.769409 869.362305,621.804504 863.545532,622.080811 
	C859.260498,622.284302 857.993896,620.326172 857.999878,616.448181 
	C858.047424,585.632629 858.063293,554.816833 857.974304,524.001404 
	C857.963989,520.416565 859.074402,518.825928 862.843628,518.936401 
	C869.334351,519.126648 875.839478,518.854492 882.327393,519.087402 
	C883.850830,519.142090 886.306580,520.125732 886.655762,521.218140 
	C887.985291,525.378113 890.157166,524.303101 892.714172,522.835449 
	C904.653381,515.983032 917.277405,515.317627 930.261353,518.965698 
	C944.605164,522.995789 951.453125,533.437988 953.967102,547.395081 
	C954.406189,549.833130 954.653809,552.305725 954.993530,555.236450 
z"/>
<path fill="#D5E1DF" opacity="1.000000" stroke="none" 
	d="
M1003.677490,420.589355 
	C1006.307007,435.090790 1006.175049,448.751984 997.043579,460.907928 
	C990.392639,469.761780 981.469055,474.331940 970.606689,476.095093 
	C958.837463,478.005432 948.363403,475.466125 938.000000,467.864319 
	C938.000000,473.796265 938.071289,478.850403 937.980652,483.901642 
	C937.882935,489.352417 937.633606,494.800446 937.450439,500.249695 
	C931.858765,500.492706 926.267273,500.738739 920.675354,500.974823 
	C920.010742,501.002899 919.337219,500.915192 918.679260,500.986816 
	C915.806274,501.299530 914.976990,499.937988 914.982117,497.196228 
	C915.044983,463.739197 915.033020,430.282043 915.001953,396.824921 
	C914.999817,394.546265 915.311157,392.965515 918.181702,393.017822 
	C924.482727,393.132599 930.787415,393.053406 937.548218,393.053406 
	C937.800842,395.604401 938.021301,397.831055 938.273621,400.379028 
	C951.052612,390.419922 965.175415,389.657501 979.712891,394.539764 
	C992.086426,398.695312 999.577148,407.948425 1003.677490,420.589355 
M943.559753,417.031342 
	C932.121460,428.814545 935.582886,451.984406 953.575684,456.385315 
	C963.507141,458.814453 974.514221,455.071686 979.651184,446.612366 
	C985.018677,437.773407 983.416504,425.503143 976.563599,417.958130 
	C970.449829,411.226990 954.255859,408.460663 943.559753,417.031342 
z"/>
<path fill="#E5E5E5" opacity="1.000000" stroke="none" 
	d="
M362.332306,522.727295 
	C361.523621,520.890869 360.885529,519.398560 359.870575,517.024780 
	C370.244446,517.024780 379.974518,516.902954 389.692108,517.195129 
	C390.778046,517.227783 392.247192,519.448914 392.772949,520.927368 
	C399.892792,540.949036 406.875916,561.019226 413.899475,581.075073 
	C414.160889,581.821594 414.490417,582.544250 415.321930,584.593079 
	C417.530151,578.663208 419.398590,573.872925 421.103790,569.025146 
	C426.723358,553.049500 432.377167,537.084534 437.785309,521.037048 
	C438.824341,517.953979 440.262909,516.868225 443.464264,516.935059 
	C452.417480,517.122131 461.377167,517.000122 471.022888,517.000122 
	C467.136841,526.501038 463.577545,535.370117 459.890045,544.185608 
	C450.602692,566.388184 441.157471,588.525330 431.996094,610.779541 
	C429.235260,617.485962 424.509827,621.274841 417.520081,621.933105 
	C409.563171,622.682495 403.007660,620.084045 399.646362,612.239319 
	C393.108765,596.981689 386.652222,581.688660 380.271515,566.364685 
	C374.275299,551.964172 368.420166,537.504883 362.332306,522.727295 
z"/>
<path fill="#D5E1DF" opacity="1.000000" stroke="none" 
	d="
M796.761719,456.059875 
	C800.710754,453.933014 804.164978,451.688782 807.829956,449.869141 
	C809.328796,449.125000 811.655640,448.544586 812.965271,449.189819 
	C818.008850,451.674744 822.793396,454.685455 827.962463,457.666138 
	C821.370605,467.722351 811.972534,473.313019 800.852112,475.730957 
	C785.917725,478.978210 771.937866,476.099884 759.052185,467.672272 
	C746.701721,459.594635 741.731812,442.494049 743.361206,429.520416 
	C744.239380,422.528992 746.125122,415.906647 750.401489,410.108154 
	C757.054321,401.087341 766.264404,396.138184 776.871277,393.630432 
	C794.348206,389.498505 809.967773,393.268524 822.550903,406.275543 
	C831.123596,415.136932 833.441162,426.536591 832.829102,438.568939 
	C832.655457,441.983429 830.768372,443.112000 827.197632,443.072418 
	C809.042542,442.871246 790.883972,442.979340 772.726624,442.979126 
	C770.961182,442.979095 769.195679,442.979126 767.443787,442.979126 
	C767.646729,453.511536 784.736145,459.676117 796.761719,456.059875 
M795.225159,412.921844 
	C783.359619,408.962982 766.283813,416.983337 767.698242,426.521210 
	C781.030334,426.521210 794.351501,426.521210 808.135254,426.521210 
	C806.315125,419.445312 802.025574,415.498291 795.225159,412.921844 
z"/>
<path fill="#E5E5E5" opacity="1.000000" stroke="none" 
	d="
M165.837997,421.991882 
	C168.688873,406.101471 181.349182,395.391388 197.143036,394.178497 
	C215.304916,392.783752 232.242889,407.932007 233.036316,426.040863 
	C233.526718,437.233765 229.425598,446.317841 221.516693,454.026001 
	C214.141006,461.214508 206.964539,468.607391 199.778702,475.831573 
	C198.959091,475.618988 198.341232,475.649872 198.055771,475.356903 
	C189.135345,466.201324 179.767746,457.421112 171.514832,447.695618 
	C165.530807,440.643860 163.761337,431.731018 165.837997,421.991882 
z"/>
<path fill="#D5E1DF" opacity="1.000000" stroke="none" 
	d="
M851.185913,394.426971 
	C858.053040,393.707275 864.787170,393.315704 871.522522,393.294861 
	C872.323914,393.292419 873.575256,395.217743 873.833130,396.418091 
	C874.226929,398.251190 873.936340,400.231293 873.936340,403.221222 
	C881.990356,395.150635 890.901855,391.994965 901.562683,392.026093 
	C901.562683,399.218750 901.562683,406.110809 901.562683,413.376129 
	C898.216187,413.929169 894.620667,414.280060 891.151978,415.141418 
	C880.094604,417.887238 874.018799,425.760864 873.974060,437.194489 
	C873.930420,448.359009 873.864990,459.525055 874.013306,470.687714 
	C874.055725,473.878540 873.161987,475.202301 869.795227,475.038025 
	C864.974243,474.802734 860.120850,474.765869 855.304688,475.046356 
	C851.593567,475.262482 850.907104,473.635956 850.923584,470.350891 
	C851.049866,445.189911 851.028687,420.028137 851.185913,394.426971 
z"/>
<path fill="#E5E5E5" opacity="1.000000" stroke="none" 
	d="
M992.598145,622.010254 
	C986.312866,622.011292 980.485840,621.902161 974.665527,622.051453 
	C971.239441,622.139282 969.919739,620.784241 969.936829,617.347839 
	C970.026428,599.376526 970.002319,581.404480 969.958496,563.432861 
	C969.949341,559.681030 971.622253,557.937012 975.390564,557.983276 
	C981.213806,558.054688 987.038818,558.022705 992.862793,557.995361 
	C996.390198,557.978821 998.013000,559.702698 998.008362,563.206055 
	C997.984741,581.011414 997.977295,598.816833 998.015991,616.622070 
	C998.023438,620.048645 996.659729,622.005005 992.598145,622.010254 
z"/>
<path fill="#E5E5E5" opacity="1.000000" stroke="none" 
	d="
M990.744629,516.987732 
	C997.340515,517.190796 997.975464,517.839233 997.997314,523.999634 
	C998.011414,527.984131 997.877502,531.973511 998.033569,535.951904 
	C998.196899,540.116089 996.538635,542.127319 992.218140,542.020508 
	C986.576843,541.881042 980.926758,541.880737 975.285645,542.024597 
	C971.761536,542.114563 969.600220,540.106201 969.393066,537.178955 
	C969.010071,531.769104 969.334106,526.291626 969.637390,520.857605 
	C969.807312,517.814026 971.854675,516.836243 974.837524,516.938843 
	C979.978088,517.115662 985.129211,516.987671 990.744629,516.987732 
z"/>
<path fill="#FFFFFF" opacity="1.000000" stroke="none" 
	d="
M640.252319,549.250732 
	C650.804199,539.643738 663.924011,539.094055 674.242432,544.291321 
	C685.376465,549.899414 690.206116,563.097168 688.450073,575.574463 
	C685.289551,598.031128 660.877075,604.454651 645.352722,595.429443 
	C641.202820,593.016785 637.562927,588.586975 635.330872,584.240173 
	C629.809570,573.487976 631.716858,557.505737 640.252319,549.250732 
z"/>
<path fill="#FFFFFF" opacity="1.000000" stroke="none" 
	d="
M508.227417,555.500854 
	C514.946411,539.655457 544.747131,536.109497 554.738220,553.225769 
	C555.562500,554.638000 556.560852,556.203491 556.610535,557.726013 
	C556.645203,558.790039 555.210022,560.844238 554.412109,560.853882 
	C538.825500,561.041321 523.236084,560.993042 506.825989,560.993042 
	C507.341736,558.830505 507.697571,557.338379 508.227417,555.500854 
z"/>
<path fill="#FFFFFF" opacity="1.000000" stroke="none" 
	d="
M805.230591,593.291504 
	C792.840759,604.177124 773.482971,601.544983 764.419250,588.032288 
	C754.588745,573.376282 758.422852,554.433533 773.269592,545.483154 
	C782.482666,539.929016 792.234985,540.492126 801.330200,545.369446 
	C810.268738,550.162781 814.677551,558.141968 815.132751,568.568054 
	C815.559753,578.349548 813.071533,586.599060 805.230591,593.291504 
z"/>
<path fill="#FFFFFF" opacity="1.000000" stroke="none" 
	d="
M943.838501,416.792725 
	C954.255859,408.460663 970.449829,411.226990 976.563599,417.958130 
	C983.416504,425.503143 985.018677,437.773407 979.651184,446.612366 
	C974.514221,455.071686 963.507141,458.814453 953.575684,456.385315 
	C935.582886,451.984406 932.121460,428.814545 943.838501,416.792725 
z"/>
<path fill="#FFFFFF" opacity="1.000000" stroke="none" 
	d="
M795.618408,413.012695 
	C802.025574,415.498291 806.315125,419.445312 808.135254,426.521210 
	C794.351501,426.521210 781.030334,426.521210 767.698242,426.521210 
	C766.283813,416.983337 783.359619,408.962982 795.618408,413.012695 
z"/>
</svg>