<?xml version="1.0" encoding="utf-8"?>
<!-- Generator: Adobe Illustrator 19.0.0, SVG Export Plug-In . SVG Version: 6.00 Build 0)  -->
<svg version="1.1" id="Layer_1" xmlns="http://www.w3.org/2000/svg" xmlns:xlink="http://www.w3.org/1999/xlink" x="0px" y="0px"
	 viewBox="0 0 1080 1080" style="enable-background:new 0 0 1080 1080;" xml:space="preserve">
<style type="text/css">
	.st0{clip-path:url(#SVGID_2_);fill:#EDEDED;}
	.st1{clip-path:url(#SVGID_2_);fill:#DADADA;}
	.st2{fill:#DADADA;}
</style>
<g>
	<defs>
		<rect id="SVGID_1_" width="1080" height="1080"/>
	</defs>
	<clipPath id="SVGID_2_">
		<use xlink:href="#SVGID_1_"  style="overflow:visible;"/>
	</clipPath>
	<path class="st0" d="M359.2,516.2h31.2l24,68.7l24-68.7h31.4l-39.9,95.4c-6.5,12.6-24.5,12.6-31,0L359.2,516.2z"/>
	<path class="st0" d="M476.5,569.8c0-42.4,36.8-53.7,56.2-53.7c26.5,0,53,18,53.9,51.3c0,7.9-0.6,13-0.6,13h-81.5
		c3.4,16.9,22.5,18.8,28.2,18.8c15.6,0,23.3-8.5,26.5-12l21.8,12.6c-4.1,5.6-18,24-48.3,24C512.6,623.7,476.5,612.3,476.5,569.8
		 M505.3,560.4h51.6c-1.1-9.4-10.3-19.7-24.4-19.7C516.4,540.7,506.4,549.9,505.3,560.4"/>
	<path class="st0" d="M604.6,618V488.5c0-1.7,1.4-3.1,3.1-3.1h21.5c1.7,0,3.1,1.4,3.1,3.1V521c0,2.6,3,4.1,5,2.6
		c6-4.6,15.1-8,26.4-8c32.7,0,51.8,24.2,51.8,53.9c0,29.7-19.2,53.9-51.8,53.9c-10.8,0-20.4-3.7-26.4-7.9c-2.1-1.5-5,0-5,2.5
		c0,1.7-1.4,3.1-3.1,3.1h-21.5C606,621.1,604.6,619.7,604.6,618 M659.6,598.6c17.3,0,28.4-12.8,28.4-29.1
		c0-16.9-10.5-29.3-28.4-29.3c-17.5,0-28.4,12.2-28.4,29.3C631.2,587.5,642.1,598.6,659.6,598.6"/>
	<path class="st0" d="M730.4,569.6c0-29.5,25.2-53.7,56-53.7c30.8,0,56.3,24.2,56.3,53.7c0,29.9-25.5,53.9-56.3,53.9
		C755.6,623.5,730.4,599.5,730.4,569.6 M758,569.6c0,17.1,12.2,29.5,28.4,29.5c16,0,28.4-12.8,28.4-29.5c0-16.5-12.4-29.1-28.4-29.1
		C770.6,540.5,758,553.3,758,569.6"/>
	<path class="st0" d="M953.9,560.1v58.1c0,1.6-1.3,3-3,3h-22.8c-1.6,0-3-1.3-3-3v-58.1c0-16-9-20.8-19.9-20.8
		c-7.7,0-20.3,4.7-19.7,27.2v51.7c0,1.6-1.3,3-3,3h-22.1c-1.6,0-3-1.3-3-3v-97.4c0-1.6,1.3-3,3-3h22.1c1.6,0,3,1.3,3,3
		c0,2.4,2.7,3.8,4.7,2.4c6.8-4.6,15.6-7.3,22.9-7.3C943,515.9,953.9,533.2,953.9,560.1"/>
	<path class="st0" d="M972.7,557.2H993c2.2,0,4,1.8,4,4v55.9c0,2.2-1.8,4-4,4h-20.2c-2.2,0-4-1.8-4-4v-55.9
		C968.7,559,970.5,557.2,972.7,557.2"/>
	<path class="st0" d="M972.7,515.9H993c2.2,0,4,1.8,4,4v16.7c0,2.2-1.8,4-4,4h-20.2c-2.2,0-4-1.8-4-4v-16.7
		C968.7,517.7,970.5,515.9,972.7,515.9"/>
	<path class="st1" d="M222.1,613.9c-13.1,13.1-34.5,13.1-47.7,0l-81.5-81.5c-13.1-13.1-13.1-34.5,0-47.6c13.1-13.1,34.5-13.1,47.6,0
		l81.5,81.5C235.2,579.4,235.2,600.7,222.1,613.9"/>
	<path class="st0" d="M174.2,613.9c13.1,13.1,34.5,13.1,47.6,0l81.5-81.5c13.1-13.1,13.1-34.5,0-47.6c-13.1-13.1-34.5-13.1-47.6,0
		l-81.5,81.5C161.1,579.4,161.1,600.7,174.2,613.9"/>
	<path class="st0" d="M222.1,451l-23.9,23.9L174.2,451c-12.5-12.5-13.1-32.6-1.7-45.8l1.8-1.8c6.5-6.5,15.1-9.8,23.7-9.8
		c8.6,0,17.2,3.3,23.7,9.8l1.8,1.8C235.1,418.4,234.6,438.4,222.1,451"/>
</g>
<path class="st2" d="M744,436.8c0-37.4,33.9-47.4,51.7-47.4c24.4,0,48.8,15.9,49.6,45.2c0,7-0.5,11.4-0.5,11.4h-75
	c3.1,14.9,20.7,16.6,25.9,16.6c14.3,0,21.4-7.5,24.4-10.6l20.1,11.1c-3.8,5-16.6,21.2-44.4,21.2C777.2,484.3,744,474.2,744,436.8
	 M770.5,428.5H818c-1-8.3-9.5-17.4-22.5-17.4C780.7,411.1,771.5,419.2,770.5,428.5"/>
<path class="st2" d="M917.7,396.8v106.8c0,1.4,1.2,2.6,2.7,2.6h18.8c1.5,0,2.7-1.2,2.7-2.6v-26.8c0-2.1,2.6-3.4,4.4-2.1
	c5.3,3.8,13.2,6.6,23,6.6c28.5,0,45.3-20,45.3-44.5c0-24.5-16.7-44.5-45.3-44.5c-9.4,0-17.8,3-23,6.5c-1.8,1.2-4.3,0-4.3-2.1
	c0-1.4-1.2-2.6-2.7-2.6h-18.8C918.9,394.2,917.7,395.3,917.7,396.8 M965.7,412.8c15.1,0,24.8,10.5,24.8,24
	c0,13.9-9.2,24.2-24.8,24.2c-15.3,0-24.8-10.1-24.8-24.2C941,421.9,950.5,412.8,965.7,412.8"/>
<path class="st2" d="M908.8,393.9c-1.2-0.1-2.3-0.1-3.6-0.1c-6.4,0-14,2.2-19.9,5.9c-0.4,0.2-0.8,0.4-1.1,0.4c0,0,0,0.1,0,0.1
	c-0.6,0-1,0.4-1.5,0.6c0,0,0-0.1,0-0.1c-0.6,0.3-1.2,0.5-1.9,0.6c0,0-0.1-3.3-0.1-5.2c-0.5-0.5-1.1-0.8-1.8-0.8h-19.1
	c-1.4,0-2.6,1.1-2.6,2.4v79.8c0,1.3,1.1,2.4,2.6,2.4h19.1c1.4,0,2.6-1.1,2.6-2.4v-42.3c-0.4-15.2,6.9-20.5,13.2-21.9
	c0.1,0,0.1-0.1,0.2-0.1c1.9-1,4-1.5,6-1.6c2.5-0.5,5.3-0.4,8-0.2C908.7,405.2,908.7,398.8,908.8,393.9z"/>
</svg>
