<?xml version="1.0" encoding="utf-8"?>
<!-- Generator: Adobe Illustrator 26.0.2, SVG Export Plug-In . SVG Version: 6.00 Build 0)  -->
<svg version="1.1" id="katman_1" xmlns="http://www.w3.org/2000/svg" xmlns:xlink="http://www.w3.org/1999/xlink" x="0px" y="0px"
	 viewBox="0 0 926.4 295.1" style="enable-background:new 0 0 926.4 295.1;" xml:space="preserve">
<style type="text/css">
	.st0{fill:#575756;}
	.st1{fill:#95D4E9;}
	.st2{fill:#6BC4E8;}
</style>
<g>
	<path class="st0" d="M280.7,150.4h31.2l24,68.7l24-68.7h31.4l-39.9,95.4c-6.5,12.6-24.5,12.6-31,0L280.7,150.4z"/>
	<path class="st0" d="M398,204.1c0-42.4,36.8-53.7,56.2-53.7c26.5,0,53,18,53.9,51.3c0,7.9-0.6,13-0.6,13H426
		c3.4,16.9,22.5,18.8,28.2,18.8c15.6,0,23.3-8.5,26.5-12l21.8,12.6c-4.1,5.6-18,24-48.3,24C434.1,258,398,246.5,398,204.1z
		 M426.8,194.7h51.6c-1.1-9.4-10.3-19.7-24.4-19.7C437.9,175,427.9,184.2,426.8,194.7z"/>
	<path class="st0" d="M526.1,252.2V122.7c0-1.7,1.4-3.1,3.1-3.1h21.5c1.7,0,3.1,1.4,3.1,3.1v32.5c0,2.6,3,4.1,5,2.6
		c6-4.6,15.1-8,26.4-8c32.7,0,51.8,24.2,51.8,53.9s-19.2,53.9-51.8,53.9c-10.8,0-20.4-3.7-26.4-7.9c-2.1-1.5-5,0-5,2.5l0,0
		c0,1.7-1.4,3.1-3.1,3.1h-21.5C527.5,255.3,526.1,253.9,526.1,252.2z M581.1,232.8c17.3,0,28.4-12.8,28.4-29.1
		c0-16.9-10.5-29.3-28.4-29.3c-17.5,0-28.4,12.2-28.4,29.3C552.7,221.7,563.6,232.8,581.1,232.8z"/>
	<path class="st0" d="M651.9,203.9c0-29.5,25.2-53.7,56-53.7c30.8,0,56.3,24.2,56.3,53.7c0,29.9-25.5,53.9-56.3,53.9
		C677.1,257.8,651.9,233.7,651.9,203.9z M679.5,203.9c0,17.1,12.2,29.5,28.4,29.5c16,0,28.4-12.8,28.4-29.5
		c0-16.5-12.4-29.1-28.4-29.1C692.1,174.8,679.5,187.5,679.5,203.9z"/>
	<path class="st0" d="M875.4,194.3v58.1c0,1.6-1.3,3-3,3h-22.8c-1.6,0-3-1.3-3-3v-58.1c0-16-9-20.8-19.9-20.8
		c-7.7,0-20.3,4.7-19.7,27.2v51.7c0,1.6-1.3,3-3,3H782c-1.6,0-3-1.3-3-3V155c0-1.6,1.3-3,3-3h22.1c1.6,0,3,1.3,3,3v0
		c0,2.4,2.7,3.8,4.7,2.4c6.8-4.6,15.6-7.3,22.9-7.3C864.5,150.2,875.4,167.4,875.4,194.3z"/>
	<path class="st0" d="M894.2,191.5h20.2c2.2,0,4,1.8,4,4v55.9c0,2.2-1.8,4-4,4h-20.2c-2.2,0-4-1.8-4-4v-55.9
		C890.2,193.2,892,191.5,894.2,191.5z"/>
	<path class="st0" d="M894.2,150.2h20.2c2.2,0,4,1.8,4,4v16.7c0,2.2-1.8,4-4,4h-20.2c-2.2,0-4-1.8-4-4v-16.7
		C890.2,151.9,892,150.2,894.2,150.2z"/>
	<g>
		<path class="st1" d="M143.6,248.1c-13.1,13.1-34.5,13.1-47.6,0l-81.5-81.5c-13.1-13.1-13.1-34.5,0-47.6s34.5-13.1,47.6,0
			l81.5,81.5C156.7,213.6,156.7,235,143.6,248.1z"/>
	</g>
	<g>
		<path class="st2" d="M95.7,248.1c13.1,13.1,34.5,13.1,47.6,0l81.5-81.5c13.1-13.1,13.1-34.5,0-47.6s-34.5-13.1-47.6,0l-81.5,81.5
			C82.6,213.6,82.6,235,95.7,248.1z"/>
	</g>
	<g>
		<path class="st2" d="M143.6,85.2l-23.9,23.9L95.7,85.2c-12.5-12.5-13.1-32.6-1.7-45.8l1.8-1.8c6.5-6.5,15.1-9.8,23.7-9.8
			c8.6,0,17.2,3.3,23.7,9.8l1.8,1.8C156.6,52.6,156.1,72.7,143.6,85.2z"/>
	</g>
</g>
</svg>
